<svg xmlns="http://www.w3.org/2000/svg" fill="white" viewBox="0 0 256 53.871">
    <defs>
        <clipPath id="a" clipPathUnits="userSpaceOnUse">
            <path d="M215.499 103.268h158.892v31.296H215.499v-31.296z"/>
        </clipPath>
    </defs>
    <g clip-path="url(#a)" transform="matrix(1.57735 0 0 -1.57735 -337.547 214.507)">
        <path d="M241.89 134.09c-.243-.032-.583-.27-1.01-.713l-7.726-7.925c-.461-.472-.748-1.003-.872-1.486a5.16 5.16 0 0 0 1.09.12 5.2 5.2 0 0 0 4.933-3.587c.355.35.65.873.832 1.506l3.011 10.639c.279.99.15 1.498-.257 1.446zm-8.519-4.478c-4.697 0-8.712-3.045-10.143-7.27l4.062 1.03a7.556 7.556 0 0 0 5.329 3.05l2.893 2.973a10.701 10.701 0 0 1-2.14.218zm90.242-1.148c-6.663 0-10.678-2.804-10.678-9.45 0-6.627 4.066-9.173 9.905-9.173h9.47v4.596h-8.082c-2.098 0-3.29.538-3.626 2.972h13.195v2.06c0 5.84-3.181 8.995-10.183 8.995zm-64.823-.437c-4.905 0-9.292-2.545-9.292-9.171 0-6.646 4.216-9.015 9.252-9.015h13.453l-2.814 4.854h-8.46c-2.339 0-3.724.62-3.724 4.101 0 3.576 1.345 4.378 3.685 4.378h3.626v-7.27h4.873v12.123h-10.6zm22.684 0c-4.905 0-9.292-2.545-9.292-9.172 0-6.646 4.237-9.014 9.272-9.014h8.955v4.853h-6.795c-2.34 0-3.724.62-3.724 4.102 0 3.575 1.342 4.358 3.664 4.358h6.855v4.874h-8.935zm20.386 0c-4.906 0-9.311-2.545-9.311-9.172 0-6.646 4.237-9.014 9.271-9.014h8.975v4.853h-6.794c-2.359 0-3.745.62-3.745 4.102 0 3.575 1.345 4.358 3.685 4.358h6.855v4.874h-8.935zm40.693 0c-3.239 0-6.498-1.373-6.498-5.566 0-3.987 2.804-5.449 6.023-5.449h2.972c1.217 0 2.02-.209 2.02-1.426 0-1.18-.995-1.427-2.08-1.427h-8.559v-4.318h11.69c3.274 0 6.22 1.283 6.22 5.646 0 4.08-2.855 5.508-6.3 5.508h-2.853c-1.217 0-1.921.374-1.921 1.347 0 1.048.75 1.367 2.06 1.367h7.905v4.32h-10.679zm20.05 0c-3.238 0-6.499-1.373-6.499-5.566 0-3.987 2.803-5.449 6.023-5.449h2.972c1.217 0 2.02-.209 2.02-1.426 0-1.18-.995-1.427-2.08-1.427h-8.558v-4.318h11.689c3.276 0 6.22 1.283 6.22 5.646 0 4.08-2.873 5.508-6.3 5.508h-2.853c-1.217 0-1.92.374-1.92 1.347 0 1.048.75 1.367 2.06 1.367h7.904v4.32h-10.679zm-121.207-2.039-1.13-4.002a7.524 7.524 0 0 0 .655-3.07 7.47 7.47 0 0 0-.674-3.091l1.13-4.002a10.663 10.663 0 0 1 2.694 7.092 10.65 10.65 0 0 1-2.675 7.073zm82.397-1.684c2.058 0 2.941-.873 3.11-3.606h-6.381c.3 2.901 1.378 3.606 3.269 3.606zm-95.057-1.765a3.88 3.88 0 0 1-.912-.118l-10.737-2.714c-1.596-.407-1.592-1.071 0-1.466l10.738-2.714c.64-.164 1.242-.154 1.723-.02a5.152 5.152 0 0 0-1.347 3.467 5.13 5.13 0 0 0 1.347 3.467 2.993 2.993 0 0 1-.812.099zm9.569-5.21a5.2 5.2 0 0 0-4.934-3.586 5.07 5.07 0 0 0-1.089.119c.126-.486.414-1.01.872-1.486l7.726-7.925c1.15-1.179 1.722-.842 1.268.733l-3.011 10.66c-.177.632-.476 1.136-.832 1.485zm-15.077-1.803c1.424-4.242 5.434-7.31 10.143-7.31.723 0 1.438.08 2.12.217l-2.911 2.992a7.54 7.54 0 0 0-5.31 3.09l-4.041 1.011z"/>
    </g>
</svg>
