<svg fill="currentColor" xmlns="http://www.w3.org/2000/svg" viewBox="0 0 972.667 147.051">
    <path d="M0 0v-18.318c.003-.001.005-.799.802-.799h2.19c.798.001.795.796.795.796L3.79.001c0 .002-.001.799-.798.799H.802C.003.798.003.003 0 0"

          transform="matrix(7.15997 0 0 -7.15997 569.275 5.75)"/>
    <path d="M0 0c.015-.439.281-.937.704-1.214 2.01-1.32 7.264-.802 7.278 3.033.001.288-.297.44-.506.467-.409.055-4.857.149-6.66-.802C.212 1.166-.019.647 0 0c0 0-3.581-.013-3.581 0-.014 2.042 1.537 4.005 3.571 4.327 1.404.223 2.279.412 7.43.676.341.017.944.676.501 1.309-.693.986-1.258 1.465-3.397 1.465-1.933 0-2.965-.395-3.604-1.464-.122-.205-.543-.559-.964-.559l-2.45.007c-.289 0-.622.341-.507.621 1.146 2.765 3.495 4.126 7.088 4.13 3.213.001 7.406-1.189 7.406-5.67l-.004-8.243c.004.002 0-.796-.794-.796H9.389c-.639.001-.93.155-1.138.799-.08.255-.374.438-.628.215-2.09-1.819-6.679-2.246-9.15-.494C-2.954-2.666-3.581-1.339-3.581 0-3.581 0 0 .004 0 0"

          transform="matrix(7.15997 0 0 -7.15997 632.877 112.576)"/>
    <path d="M0 0v8.075c.001 3.615-3.188 5.83-5.517 5.83-2.313 0-4.28-.601-5.797-1.824-.133-.107-.513-.226-.513.107l-.005.829s-.002.797-.797.796h-1.887s-.8.001-.8-.792l-.002-13.024c.002-.796.8-.797.8-.797l1.891.002c.793 0 .793.797.79.798l.003 6.364c0 1.758 1.189 4.761 5.105 4.761 2.797 0 3.244-1.921 3.244-3.048l.003-8.08c.002-.796.798-.793.798-.793l1.891-.003S.003-.799 0 0"

          transform="matrix(7.15997 0 0 -7.15997 840.415 136.906)"/>
    <path d="M0 0c6.366 0 9.035 4.117 9.03 7.605-.005 3.342-2.68 7.614-9.085 7.614-6.394.002-9.068-4.26-9.068-7.615C-9.123 4.047-6.423 0 0 0v2.725c-3.722 0-5.427 2.752-5.427 4.857 0 2.109 1.784 4.893 5.375 4.893 3.592 0 5.385-2.767 5.385-4.873 0-2.131-1.756-4.877-5.333-4.877"

          transform="matrix(7.15997 0 0 -7.15997 495.685 147.051)"/>
    <path d="M0 0c0-2.817 2.08-4.95 4.809-4.95 2.726.001 4.933 1.92 4.925 4.91-.005 2.898-2.205 4.764-4.932 4.764C2.26 4.724-.002 2.78 0 0l-3.586.003c-.012 5.818 7.805 9.748 12.945 5.82.235-.177.457-.036.463.383l-.004 5.785c.006.801.805.799.805.799h1.89s.796 0 .796-.796v-18.32c0-.799-.794-.798-.794-.798l-1.892-.001c-.797 0-.799.798-.799.858.003.418-.235.565-.465.385C4.138-10.008-3.57-6.502-3.586.003"

          transform="matrix(7.15997 0 0 -7.15997 877.375 91.612)"/>
    <path d="m0 0 .001 2.641c.044 0-.797 0-.797.797-.003.976 0 4.083 0 4.083s0 .796.797.796H7.07s3.11-.005 3.111-2.838c.002-2.843-3.111-2.838-3.111-2.836L.001 2.641V.002h5.923c1.048 0 1.941-.235 2.347-.798 1.725-2.392 1.154-4.84 1.982-7.362.146-.445.559-.8 1.316-.8l2.311.003c.216 0 .379.293.314.431-.954 2.02-1.028 4.122-1.657 6.532-.348 1.337-.359 1.971-1.348 2.747-.054.043.035.195.152.276 1.441 1.01 2.47 2.653 2.47 4.448 0 3.671-2.991 5.478-5.609 5.477l-11.589-.003s-.797 0-.797-.794l-.002-18.317c.005-.806.805-.799.805-.799l1.788.002s.798-.002.798.797c0 1.301-.006 5.515-.003 7.363C-.796.002 0 0 0 0"

          transform="matrix(7.15997 0 0 -7.15997 326.545 78.445)"/>
    <path d="M0 0v-19.828h1.586v18.362H32.4c2.736 0 4.877-2.29 4.877-4.907s-2.022-4.85-4.877-4.85H10.311v-4.837h28.474v1.468H11.897v1.903H32.44c3.768 0 6.33 2.935 6.33 6.33 0 3.396-2.553 6.345-6.345 6.345S0 0 0 0"

          transform="matrix(7.15997 0 0 -7.15997 0 .258)"/>
    <path d="M0 0v-1.467h-13.218v-7.009s1.071 5.028 6.127 5.028h20.682v1.981H0V0h15.177v-4.917h-22.09c-2.656 0-4.789-2.042-4.789-4.818s2.014-4.77 4.828-4.77h26.968v-1.467H-6.913c-3.569 0-5.691 2.31-6.305 5.008v-5.008h-1.587V0"

          transform="matrix(7.15997 0 0 -7.15997 133.827 27.867)"/>
</svg>
