<svg xmlns="http://www.w3.org/2000/svg" xml:space="preserve" width="505" height="92.195"><path d="M439.99 292.727c-4.371-1.552-9.231-2.93-14.56-4.14h14.966v3.85l-.407.29zm47.305-.075c-3.572-1.442-7.98-2.793-13.2-4.065h13.913v3.833l-.713.232zm119.028-.008c-4.83 0-8.652-1.351-11.466-4.056h4.397c.894.854 2.056 1.285 3.493 1.285.874 0 1.764-.433 2.671-1.285h9.948c-.455.826-1.213 1.575-2.265 2.256-1.852 1.199-4.111 1.8-6.778 1.8zM424.4 287.26v-.415c1.325.13 2.325.191 3.004.191 1.596 0 2.699-.34 3.31-1.02.611-.68.92-2.215.92-4.613v-.274h8.762v6.131H424.4zm48.675 0v-.415c.57.064 1.21.1 1.908.1 1.776 0 3.03-.34 3.758-1.012.73-.64 1.087-2.127 1.087-4.464v-.34h8.18v6.131h-14.933zm120.57 0c-1.335-1.659-2.387-3.705-3.152-6.13h6.563c.019 2.639.412 4.686 1.194 6.13h-4.604zm12.951 0c.27-.357.54-.747.813-1.178 1.6-2.463 3.045-3.692 4.331-3.692 1.193 0 2.177.375 2.962 1.12.784.778 1.178 1.798 1.178 3.061 0 .236-.02.463-.058.69h-9.226zm-174.961-7.458v-5.84h8.76v5.84h-8.76zm48.193 0v-5.84h8.18v5.84h-8.18zm110.292 0c-.458-1.766-.785-3.71-.97-5.84h7.897v5.84h-6.927zm-158.485-7.168v-5.343h8.76v5.343h-8.76zm48.193 0v-5.343h8.18v5.343h-8.18zm109.23 0a55.9 55.9 0 0 1-.1-3.319h-7.533v-.937h27.677v.937h-12.055v3.319h-7.99zm-189.265-1.992c-4.712 0-8.475-1.12-11.29-3.351h7.416c1.008.386 2.103.58 3.285.58 1.312 0 2.448-.195 3.41-.58h8.67c-2.427 2.23-6.256 3.351-11.49 3.351zm69.955-.116c-3.854 0-7.299-1.082-10.337-3.235h7.881c.81.204 1.662.306 2.556.307.911 0 1.771-.103 2.58-.307h5.907c-2.597 2.152-5.457 3.235-8.587 3.235zm89.418-.564c-2.379-.91-4.734-1.8-7.068-2.671h7.541v2.38l-.473.291zm11.905 0c-1.938 0-3.935-.894-5.99-2.671h10.595c-.222.494-.518.92-.88 1.277-.91.93-2.156 1.394-3.725 1.394zm-51.27-.042c-4.016 0-7.541-.875-10.579-2.63h22.185c-3.252 1.75-7.123 2.63-11.607 2.63zm-205.933-.39v-1.51c.912 0 1.662-.245 2.257-.73h12.229c.745.485 1.76.73 3.053.73v1.51h-17.539zm23.636 0v-1.51c1.074 0 2.015-.247 2.821-.73h13.855c.853.323 1.917.57 3.194.73v1.51h-19.87zm29.876 0v-1.51c.964-.181 1.767-.428 2.414-.73h8.296c.396.316.846.558 1.352.73v1.51H367.38zm214.045-2.48v-.946h7.533v-5.368h8.09v5.368h12.054v.946h-27.677zm-264.271-1.087c.604-1.058 1.366-2.758 2.29-5.135l.032-.092h8.289c-.023.072-.054.164-.075.233-.508 1.652-.763 2.916-.763 3.791 0 .435.09.834.257 1.203h-10.03zm24.623 0c.805-1.04 1.595-2.628 2.356-4.795l.15-.432h8.23c-.231.674-.418 1.23-.523 1.593-.254.875-.382 1.563-.382 2.05 0 .597.185 1.125.548 1.584h-10.379zm29.651 0c.225-.373.34-.787.34-1.244 0-1.037-.163-2.066-.48-3.07-.087-.304-.18-.61-.275-.913h3.667l.855 2.232a24.692 24.692 0 0 0 1.443 2.995h-5.55zm15.606 0c-1.652-1.68-2.632-3.424-2.946-5.227h8.463c-.038.188-.08.38-.133.573-.162.745-.249 1.364-.249 1.85 0 1.068.485 2.001 1.452 2.804h-6.587zm17.588 0c1.146-1.187 1.793-2.933 1.933-5.227h7.923c-.405 2.136-1.086 3.878-2.041 5.227h-7.815zm27.013 0v-5.227h8.76v5.227h-8.76zm26.108 0a23.059 23.059 0 0 1-2.497-2.597 25.369 25.369 0 0 1-1.9-2.63h6.662c.375.797.8 1.531 1.278 2.199.908 1.27 1.924 2.276 3.045 3.028h-6.588zm17.597 0a9.798 9.798 0 0 0 1.684-1.493c1.057-1.158 1.814-2.403 2.273-3.734h8.711v5.227h-8.18v-.05l-.05.05h-4.438zm31.9 0a20.202 20.202 0 0 1-2.938-2.754 23.497 23.497 0 0 1-1.883-2.473h6.737c.347.697.737 1.364 1.178 1.992 1.016 1.423 2.226 2.5 3.625 3.235h-6.72zm16.89 0c2.024-1.046 3.78-2.788 5.269-5.227h9.118a20.028 20.028 0 0 1-2.34 2.912 19.204 19.204 0 0 1-2.647 2.315h-9.4zm24.384 0c-1.226-.452-2.446-.903-3.659-1.344v-1.493c1.098.256 2.242.39 3.435.39 1.464 0 2.436-.93 2.912-2.78h8.437v5.227h-11.125zm15.182 0c-1.324-1.384-2.676-3.122-4.049-5.227h2.116c.045.059.086.116.133.175 1.537 1.893 2.906 2.845 4.098 2.845.941 0 1.926-.649 2.962-1.933 1.035-1.252 2.226-1.875 3.576-1.875.94 0 1.793.374 2.547 1.112.753.77 1.128 1.874 1.128 3.319 0 .573-.052 1.099-.141 1.584h-12.37zm-243.713-6.554 2.007-5.31h8.172a158.61 158.61 0 0 0-1.958 5.31h-8.221zm24.756 0 1.344-3.883-.647-1.427h9.466l-1.054 2.887c-.34.929-.618 1.711-.87 2.423h-8.24zm25.835 0a36.03 36.03 0 0 0-.282-.772l-1.776-4.538h3.617l2.041 5.31h-3.6zm13.398 0c.01-1.305.395-2.353 1.162-3.153.808-.777 1.876-1.17 3.202-1.17 1.165 0 2.188.393 3.062 1.17.873.778 1.31 1.78 1.31 3.012 0 .047-.007.094-.008.141h-8.727zm22.608 0v-5.31h8.346v1.278c0 1.459-.074 2.8-.232 4.032h-8.114zm25.055 0v-5.31h8.76v5.31h-8.76zm20.94 0a25.083 25.083 0 0 1-2.14-5.31h7.79c.242 1.98.65 3.75 1.227 5.31h-6.877zm27.079 0c.118-.617.174-1.249.174-1.9v-3.41h8.18v5.31h-8.354zm21.96 0a23.17 23.17 0 0 1-2.173-5.31h7.898c.185 1.935.598 3.701 1.228 5.31h-6.953zm28.532 0a26.446 26.446 0 0 0 2.074-5.31h9.167a21.793 21.793 0 0 1-2.066 5.31h-9.175zm21.288 0c.069-.592.108-1.247.108-1.966v-3.344h8.097v1.61c0 1.147.402 2.38 1.203 3.7h-9.408zm37.524 0v-5.31h8.09v5.31h-8.09zm-266.47-6.637 1.925-5.07h8.163l-1.908 5.07h-8.18zm22.342 0-2.315-5.07h4.232l1.435 3.112 1.178-3.111h7.873l-1.85 5.069H344.83zm23.164 0-1.975-5.07h3.667l1.941 5.07h-3.633zm35.458 0c-4.277-1.68-7.997-3.366-11.15-5.07h5.683c2.212 1.275 5.074 2.568 8.595 3.884v-3.883h8.346v5.069h-11.474zm28.183 0v-5.07h8.76v5.07h-8.76zm18.467 0a29.81 29.81 0 0 1-.663-5.07H458c-.024.572-.042 1.151-.042 1.743 0 1.163.046 2.273.133 3.327h-7.99zm29.726 0v-5.07h8.18v5.07h-8.18zm19.281 0a28.31 28.31 0 0 1-.606-5.07h8.86a54.19 54.19 0 0 0-.14 3.892c0 .4.008.79.025 1.178h-8.139zm33.443 0c.361-1.597.61-3.29.755-5.07h8.877a29.971 29.971 0 0 1-.515 5.07h-9.117zm18.99 0v-5.07h8.097v5.07h-8.097zm37.416 0v-5.07h8.09v5.07h-8.09zm-264.047-6.397 2.007-5.31h8.156l-2 5.31h-8.163zm17.007 0-2.422-5.31h4.198l2.447 5.31h-4.223zm7.94 0 2.007-5.31h7.79l-1.932 5.31h-7.865zm15.638 0-2.074-5.31h3.725l2.033 5.31h-3.684zm24.475 0a52.571 52.571 0 0 1-1.245-.763c-2.016-1.277-3.571-2.793-4.662-4.546h7.483c.525 1.317 1.35 2.557 2.472 3.717.51.526 1.14 1.059 1.883 1.592h-5.931zm16.609 0v-5.31h8.346v5.31h-8.346zm25.055 0v-5.31h8.76v5.31h-8.76zm17.77 0c0-.097-.007-.192-.007-.29 0-1.777.102-3.452.315-5.02h9.2c-.418 1.649-.694 3.42-.837 5.31h-8.67zm30.423 0v-5.31h8.18v5.31h-8.18zm18.659 0c.015-1.85.18-3.621.506-5.31h9.333a43.624 43.624 0 0 0-.854 5.31h-8.985zm34.91 0a44.558 44.558 0 0 0-.042-5.31h8.256c.356 1.691.546 3.463.58 5.31h-8.793zm18.145 0v-5.31h8.097v5.31h-8.097zm37.416 0v-5.31h8.09v5.31h-8.09zm-261.534-6.637 1.95-5.152h11.341l2.373 5.152h-4.198l-1.817-3.99-1.502 3.99h-8.147zm24.947 0 1.942-5.152h10.354l1.966 5.152H362.9l-1.427-3.65-1.336 3.65h-7.766zm30.98 0c-.72-1.554-1.122-3.27-1.204-5.152h9.06c-.232.863-.349 1.815-.349 2.854 0 .79.088 1.555.266 2.298h-7.774zm23.229 0v-2.73c0-1.043-.06-1.845-.174-2.422h8.528c-.004.188-.008.374-.008.573v4.58h-8.346zm25.055 0v-5.152h8.76v5.152h-8.76zm18.293 0c.342-1.88.846-3.599 1.518-5.152h10.213c-.077.12-.157.234-.232.357a21.576 21.576 0 0 0-2.14 4.795h-9.359zm29.9 0v-4.073c0-.368-.042-.728-.124-1.079h8.33c-.016.236-.026.48-.026.739v4.413h-8.18zm19.455 0a23.758 23.758 0 0 1 1.925-5.152h9.217a35.34 35.34 0 0 0-1.775 5.152h-9.367zm33.974 0c-.195-1.91-.537-3.627-1.012-5.152h7.01a23.866 23.866 0 0 1 2.033 5.152h-8.031zm18.285 0v-5.152h8.097v5.152h-8.097zm37.416 0v-5.152h8.09v5.152h-8.09zm-259.086-6.48 1.983-5.226h5.84l2.406 5.227h-10.23zm24.947 0 1.941-5.143c.014-.037.02-.046.033-.083h5.36l2 5.227h-9.334zm27.328 0c.099-1.935.685-3.68 1.759-5.226h19.588a42.915 42.915 0 0 1 3.235 2.655c.055-.989.195-1.875.423-2.655h14.42c.224.23.448.464.68.714v2.72c-.68-.68-1.406-1.185-2.182-1.509a5.863 5.863 0 0 0-2.373-.481c-1.003 0-1.72.418-2.14 1.26-.278.579-.462 1.422-.556 2.523h-9.218a3.749 3.749 0 0 0-.555-.58c-.939-.876-2.102-1.634-3.493-2.282-1.359-.616-2.855-.921-4.472-.921-1.78 0-3.293.724-4.555 2.182a7.18 7.18 0 0 0-1.02 1.6h-9.54zm49.488 0c-.03-2.382-.408-4.126-1.129-5.226h10.836c-.633.995-.946 2.58-.946 4.762v.465h-8.761zm20.45 0a16.752 16.752 0 0 1 2.497-3.55c.574-.61 1.171-1.166 1.784-1.676h21.496c.707.667 1.364 1.42 1.966 2.257v-2.257h11.54l3.394 1.195v1.493c-.666-.064-1.362-.1-2.091-.1-1.427 0-2.57.305-3.426.913-.479.353-.812.931-1.013 1.726h-9.06c-.417-.728-1.033-1.414-1.858-2.058-1.68-1.312-3.693-1.974-6.04-1.974-3.564 0-6.449 1.35-8.652 4.032h-10.537zm49.87 0a23.957 23.957 0 0 1 2.547-3.484 21.6 21.6 0 0 1 1.742-1.742h8.711c-1.493 1.24-2.795 2.986-3.908 5.227h-9.092zm29.817 0c-.439-1.1-.958-2.087-1.568-2.953a11.724 11.724 0 0 0-2.108-2.273h6.007c.649.579 1.273 1.205 1.875 1.883a24.818 24.818 0 0 1 2.505 3.344h-6.711zm19.77 0v-.173c0-2.41-.394-4.095-1.178-5.053h10.652c-.846 1.014-1.293 2.765-1.36 5.227h-8.114zm37.4 0c-.078-2.406-.446-4.147-1.095-5.226h10.37c-.685 1.015-1.064 2.761-1.145 5.227h-8.13zm-256.59-6.553c.38-1.006.748-1.853 1.104-2.522.413-.778.823-1.17 1.236-1.17.381 0 .736.323 1.054.97.304.594.766 1.538 1.335 2.722h-4.729zm24.93 0c.329-.879.704-1.877.905-2.431.318-.842.718-1.261 1.195-1.261.508 0 .9.34 1.186 1.02.238.566.613 1.503 1.07 2.672h-4.355zm27.719 0c.015-.016.026-.034.042-.05 1.973-1.977 4.493-2.97 7.566-2.97 2.778 0 5.761 1.013 8.943 3.02h-16.551zm22.682 0c1.04-2.01 2.904-3.02 5.6-3.02 1.585 0 3.038.375 4.364 1.12.787.45 1.634 1.09 2.539 1.9h-12.503zm21.214 0c-1.243-.604-2.742-.905-4.497-.905v-1.51h23.23v1.51c-1.993.136-3.53.438-4.613.905h-14.12zm29.278 0c2.682-1.709 5.696-2.564 9.051-2.564 3.52 0 6.517.857 8.993 2.564h-18.044zm21.653 0v-2.273l.481-.29 7.285 2.563h-7.766zm28.075 0c3.471-2.488 7.615-3.734 12.436-3.734 4.63 0 8.66 1.246 12.105 3.734h-6.447c-1.382-.642-2.928-.97-4.637-.97-1.578 0-3.032.322-4.364.97h-9.093zm40.32 0c-.908-.346-2.024-.627-3.368-.838v-1.493h23.022v1.493c-1.944.147-3.506.426-4.687.838h-14.967zm38.105 0c-1.24-.605-3.016-.935-5.326-.987v-1.51h25.18v1.51l-3.153.199c-1.292.082-2.371.344-3.236.788h-13.465z" style="font-size:295.18170166px;font-style:normal;font-variant:normal;font-weight:400;font-stretch:normal;line-height:125%;letter-spacing:0;word-spacing:0;fill:#707070;fill-opacity:1;stroke:none;font-family:Times;-inkscape-font-specification:Times" transform="matrix(1.25 0 0 -1.25 -267.35 368.409)"/>
    
    <path d="M250.633 288.587a34.416 34.416 0 0 1-2.215-1.327h37.633c-.721.47-1.459.911-2.216 1.327zm-9.3-7.458a34.697 34.697 0 0 1-1.112-1.328h54.026c-.36.452-.73.895-1.111 1.328zm53.794-2.48c-3.266-1.1-6.097-2.673-8.554-4.688h-50.11c-.222-.437-.434-.88-.639-1.328h49.256c-1.643-1.566-3.098-3.353-4.397-5.342H233.9a34.542 34.542 0 0 1-.324-1.328h46.277a42.747 42.747 0 0 1-2.605-5.227h-44.443c-.03-.44-.053-.883-.067-1.327h43.98c-.147-.376-.293-.752-.432-1.137a44.084 44.084 0 0 0-2.174-4.173h-41.133c.054-.445.12-.888.19-1.327h40.122a33.53 33.53 0 0 0-3.99-5.07h-34.912c.145-.446.294-.888.456-1.327h33.095c-2.465-2.257-5.177-3.99-8.114-5.31h-22.492c.261-.45.533-.889.813-1.327h18.244c-3.3-1.092-6.805-2.03-10.586-2.198-12.184-.053-19.75 5.432-26.73 12.146l-3.195-2.356c7.049-8.496 16.285-12.826 27.312-13.764 6.214-6.036 14.695-9.757 24.042-9.757 19.061 0 34.513 15.452 34.513 34.513a34.347 34.347 0 0 1-6.612 20.318l-.008.008zm-.59-3.9c.206-.34.405-.68.598-1.029a31.72 31.72 0 0 0 3.957-15.398c0-17.594-14.263-31.858-31.858-31.858a31.71 31.71 0 0 0-19.936 7.01c11.025.774 27.188 7.83 33.352 24.798 2.732 6.427 8.415 15.902 13.888 16.477z"
          style="fill:#707070;fill-opacity:1;stroke:none" transform="matrix(1.25 0 0 -1.25 -267.35 368.409)"/></svg>
