<?xml version="1.0" standalone="no"?>
<!DOCTYPE svg PUBLIC "-//W3C//DTD SVG 20010904//EN"
 "http://www.w3.org/TR/2001/REC-SVG-20010904/DTD/svg10.dtd">
<svg version="1.0" xmlns="http://www.w3.org/2000/svg"
 width="200.000000pt" height="200.000000pt" viewBox="0 0 200.000000 200.000000"
 preserveAspectRatio="xMidYMid meet">
<metadata>
Created by potrace 1.14, written by Peter Selinger 2001-2017
</metadata>
<g transform="translate(0.000000,200.000000) scale(0.100000,-0.100000)"
fill="#000000" stroke="none">
<path d="M95 1986 c-41 -18 -83 -69 -90 -109 -3 -18 -4 -424 -3 -904 3 -862 3
-872 24 -899 11 -15 33 -37 48 -48 27 -21 34 -21 926 -21 892 0 899 0 926 21
15 11 37 33 48 48 21 27 21 34 21 926 0 892 0 899 -21 926 -11 15 -33 37 -48
48 -27 21 -36 21 -914 23 -722 2 -893 0 -917 -11z m825 -445 c15 -30 14 -1073
-2 -1089 -18 -18 -56 -14 -68 7 -15 30 -14 1073 2 1089 18 18 56 14 68 -7z
m452 -108 c17 -15 18 -41 18 -404 0 -339 -2 -390 -16 -403 -20 -20 -38 -20
-58 0 -14 13 -16 64 -16 401 0 346 2 388 17 405 20 22 31 23 55 1z m-688 -59
c14 -13 16 -59 16 -348 0 -245 -3 -335 -12 -344 -18 -18 -56 -14 -68 7 -6 13
-10 140 -10 345 0 282 2 327 16 340 8 9 22 16 29 16 7 0 21 -7 29 -16z m464
-116 c9 -9 12 -73 12 -227 0 -185 -2 -217 -17 -233 -20 -22 -31 -23 -55 -1
-16 15 -18 36 -18 233 0 227 2 240 45 240 12 0 26 -5 33 -12z m-694 -114 c13
-12 16 -38 16 -118 0 -108 -7 -126 -47 -126 -34 0 -43 29 -43 134 0 96 11 126
45 126 7 0 21 -7 29 -16z m1150 0 c13 -12 16 -38 16 -118 0 -108 -7 -126 -47
-126 -34 0 -43 29 -43 134 0 96 11 126 45 126 7 0 21 -7 29 -16z"/>
</g>
</svg>
